<svg xmlns="http://www.w3.org/2000/svg" viewBox="0 0 100 100"><rect width="100" height="100" rx="50" fill="#F0E4EE"/><g><path d="M22 44 q2 -30 28 -30 q26 0 28 30 q3 18 -4 34 q-4 -10 -8 -8 q3 -14 0 -24 q-16 6 -32 0 q-3 10 0 24 q-4 -2 -8 8 q-7 -16 -4 -34 z" fill="#8a3b22"/><path d="M40 78 q10 4 20 0 l0 12 -20 0 z" fill="#F6D2B3"/><ellipse cx="28" cy="56" rx="4" ry="5" fill="#F6D2B3" stroke="#2a2320" stroke-width="2"/><ellipse cx="72" cy="56" rx="4" ry="5" fill="#F6D2B3" stroke="#2a2320" stroke-width="2"/><path d="M27 50 q0 -22 23 -22 q23 0 23 22 q0 24 -23 30 q-23 -6 -23 -30 z" fill="#F6D2B3" stroke="#2a2320" stroke-width="2.2"/><path d="M26 46 q2 -26 24 -26 q22 0 24 26 q-7 -12 -24 -12 q-17 0 -24 12 z" fill="#8a3b22"/><circle cx="40" cy="52" r="2.5" fill="#2a2320"/><circle cx="60" cy="52" r="2.5" fill="#2a2320"/><path d="M35 45 q5 -3 10 0" fill="none" stroke="#2a2320" stroke-width="2.2" stroke-linecap="round" stroke-linejoin="round"/><path d="M55 45 q5 -3 10 0" fill="none" stroke="#2a2320" stroke-width="2.2" stroke-linecap="round" stroke-linejoin="round"/><path d="M50 54 q -3 6 1 8" fill="none" stroke="#2a2320" stroke-width="2.2" stroke-linecap="round" stroke-linejoin="round"/><path d="M43 68 q7 6 14 0" fill="none" stroke="#2a2320" stroke-width="2.2" stroke-linecap="round" stroke-linejoin="round"/><circle cx="28" cy="62" r="2" fill="#d4af37"/><circle cx="72" cy="62" r="2" fill="#d4af37"/></g></svg>