<svg xmlns="http://www.w3.org/2000/svg" viewBox="0 0 100 100"><defs><filter id="r"><feTurbulence type="fractalNoise" baseFrequency="0.013" numOctaves="2" seed="35" result="n"/><feDisplacementMap in="SourceGraphic" in2="n" scale="2"/></filter></defs><rect width="100" height="100" rx="50" fill="#EFE6D6"/><g filter="url(#r)"><path d="M40 78 q10 4 20 0 l0 12 -20 0 z" fill="#F6D2B3"/><ellipse cx="28" cy="56" rx="4" ry="5" fill="#F6D2B3" stroke="#2a2320" stroke-width="2"/><ellipse cx="72" cy="56" rx="4" ry="5" fill="#F6D2B3" stroke="#2a2320" stroke-width="2"/><path d="M27 50 q0 -22 23 -22 q23 0 23 22 q0 24 -23 30 q-23 -6 -23 -30 z" fill="#F6D2B3" stroke="#2a2320" stroke-width="2.2"/><path d="M43 70 q7 10 14 0 q-2 12 -7 12 q-5 0 -7 -12 z" fill="#4A3528"/><path d="M40 64 q10 5 20 0" fill="none" stroke="#2a2320" stroke-width="3" stroke-linecap="round" stroke-linejoin="round" stroke="#4A3528"/><path d="M27 46 q2 -25 23 -25 q21 0 23 25 q-8 -12 -23 -12 q-15 0 -23 12 z" fill="#4A3528"/><path d="M37 33 q13 -9 26 0 q-13 -5 -26 0 z" fill="#3a5fa0" stroke="#2a2320" stroke-width="1.2"/><circle cx="40" cy="52" r="2.5" fill="#2a2320"/><circle cx="60" cy="52" r="2.5" fill="#2a2320"/><path d="M35 45 q5 -3 10 0" fill="none" stroke="#2a2320" stroke-width="2.2" stroke-linecap="round" stroke-linejoin="round"/><path d="M55 45 q5 -3 10 0" fill="none" stroke="#2a2320" stroke-width="2.2" stroke-linecap="round" stroke-linejoin="round"/><path d="M50 54 q -3 6 1 8" fill="none" stroke="#2a2320" stroke-width="2.2" stroke-linecap="round" stroke-linejoin="round"/><path d="M44 68 q6 3 12 0" fill="none" stroke="#2a2320" stroke-width="2.2" stroke-linecap="round" stroke-linejoin="round"/></g></svg>