<svg xmlns="http://www.w3.org/2000/svg" viewBox="0 0 100 100"><defs><filter id="r"><feTurbulence type="fractalNoise" baseFrequency="0.013" numOctaves="2" seed="42" result="n"/><feDisplacementMap in="SourceGraphic" in2="n" scale="2"/></filter></defs><rect width="100" height="100" rx="50" fill="#E3EFD8"/><g filter="url(#r)"><path d="M40 78 q10 4 20 0 l0 12 -20 0 z" fill="#7A4424"/><ellipse cx="28" cy="56" rx="4" ry="5" fill="#7A4424" stroke="#2a2320" stroke-width="2"/><ellipse cx="72" cy="56" rx="4" ry="5" fill="#7A4424" stroke="#2a2320" stroke-width="2"/><path d="M27 50 q0 -22 23 -22 q23 0 23 22 q0 24 -23 30 q-23 -6 -23 -30 z" fill="#7A4424" stroke="#2a2320" stroke-width="2.2"/><circle cx="30" cy="34" r="11" fill="#241f1c"/><circle cx="70" cy="34" r="11" fill="#241f1c"/><circle cx="50" cy="24" r="14" fill="#241f1c"/><path d="M24 42 q26 -16 52 0 z" fill="#241f1c"/><circle cx="40" cy="52" r="2.5" fill="#2a2320"/><circle cx="60" cy="52" r="2.5" fill="#2a2320"/><path d="M35 45 q5 -3 10 0" fill="none" stroke="#2a2320" stroke-width="2.2" stroke-linecap="round" stroke-linejoin="round"/><path d="M55 45 q5 -3 10 0" fill="none" stroke="#2a2320" stroke-width="2.2" stroke-linecap="round" stroke-linejoin="round"/><circle cx="40" cy="52" r="7.5" fill="none" stroke="#2a2320" stroke-width="2" stroke-linecap="round" stroke-linejoin="round"/><circle cx="60" cy="52" r="7.5" fill="none" stroke="#2a2320" stroke-width="2" stroke-linecap="round" stroke-linejoin="round"/><path d="M47 52 h6" fill="none" stroke="#2a2320" stroke-width="2" stroke-linecap="round" stroke-linejoin="round"/><path d="M50 54 q -3 6 1 8" fill="none" stroke="#2a2320" stroke-width="2.2" stroke-linecap="round" stroke-linejoin="round"/><path d="M44 68 q6 3 12 0" fill="none" stroke="#2a2320" stroke-width="2.2" stroke-linecap="round" stroke-linejoin="round"/></g></svg>