<svg xmlns="http://www.w3.org/2000/svg" viewBox="0 0 100 100"><rect width="100" height="100" rx="50" fill="#F3E2D8"/><g><path d="M40 78 q10 4 20 0 l0 12 -20 0 z" fill="#F6D2B3"/><ellipse cx="28" cy="56" rx="4" ry="5" fill="#F6D2B3" stroke="#2a2320" stroke-width="2"/><ellipse cx="72" cy="56" rx="4" ry="5" fill="#F6D2B3" stroke="#2a2320" stroke-width="2"/><path d="M27 50 q0 -22 23 -22 q23 0 23 22 q0 24 -23 30 q-23 -6 -23 -30 z" fill="#F6D2B3" stroke="#2a2320" stroke-width="2.2"/><circle cx="32" cy="32" r="9" fill="#8a3b22"/><circle cx="50" cy="26" r="10" fill="#8a3b22"/><circle cx="68" cy="32" r="9" fill="#8a3b22"/><circle cx="26" cy="42" r="7" fill="#8a3b22"/><circle cx="74" cy="42" r="7" fill="#8a3b22"/><circle cx="40" cy="52" r="2.5" fill="#2a2320"/><circle cx="60" cy="52" r="2.5" fill="#2a2320"/><path d="M35 45 q5 -3 10 0" fill="none" stroke="#2a2320" stroke-width="2.2" stroke-linecap="round" stroke-linejoin="round"/><path d="M55 45 q5 -3 10 0" fill="none" stroke="#2a2320" stroke-width="2.2" stroke-linecap="round" stroke-linejoin="round"/><path d="M50 54 q -3 6 1 8" fill="none" stroke="#2a2320" stroke-width="2.2" stroke-linecap="round" stroke-linejoin="round"/><path d="M44 68 q6 3 12 0" fill="none" stroke="#2a2320" stroke-width="2.2" stroke-linecap="round" stroke-linejoin="round"/><path d="M21 54 q-1 -36 29 -36 q30 0 29 36" fill="none" stroke="#1c1c1e" stroke-width="6" stroke-linecap="round"/><rect x="14" y="46" width="13" height="22" rx="6" fill="#1c1c1e"/><rect x="73" y="46" width="13" height="22" rx="6" fill="#1c1c1e"/><rect x="22" y="50" width="4" height="14" rx="2" fill="#46464a"/><rect x="74" y="50" width="4" height="14" rx="2" fill="#46464a"/></g></svg>