<svg xmlns="http://www.w3.org/2000/svg" viewBox="0 0 100 100"><defs><filter id="rough"><feTurbulence type="fractalNoise" baseFrequency="0.013" numOctaves="2" seed="14" result="n"/><feDisplacementMap in="SourceGraphic" in2="n" scale="2.1"/></filter></defs><rect width="100" height="100" rx="50" fill="#DDEFE6"/><g filter="url(#rough)"><path d="M40 78 q10 4 20 0 l0 12 -20 0 z" fill="#9C5A34"/><ellipse cx="28" cy="56" rx="4" ry="5" fill="#9C5A34" stroke="#2a2320" stroke-width="2"/><ellipse cx="72" cy="56" rx="4" ry="5" fill="#9C5A34" stroke="#2a2320" stroke-width="2"/><path d="M27 50 q0 -22 23 -22 q23 0 23 22 q0 24 -23 30 q-23 -6 -23 -30 z" fill="#9C5A34" stroke="#2a2320" stroke-width="2.2"/><path d="M27 44 l4 -16 5 12 5 -18 5 16 5 -16 5 18 5 -12 4 16 q-21 -8 -42 0 z" fill="#1A1A1A"/><circle cx="40" cy="52" r="2.4" fill="#2a2320"/><circle cx="60" cy="52" r="2.4" fill="#2a2320"/><path d="M35 45 q5 -3 10 0" fill="none" stroke="#2a2320" stroke-width="2.2" stroke-linecap="round" stroke-linejoin="round" /><path d="M55 45 q5 -3 10 0" fill="none" stroke="#2a2320" stroke-width="2.2" stroke-linecap="round" stroke-linejoin="round" /><path d="M50 54 q -3 6 1 8" fill="none" stroke="#2a2320" stroke-width="2.2" stroke-linecap="round" stroke-linejoin="round" /><path d="M44 69 h12" fill="none" stroke="#2a2320" stroke-width="2.2" stroke-linecap="round" stroke-linejoin="round" /></g></svg>