<svg xmlns="http://www.w3.org/2000/svg" viewBox="0 0 100 100"><defs><filter id="rough"><feTurbulence type="fractalNoise" baseFrequency="0.013" numOctaves="2" seed="63" result="n"/><feDisplacementMap in="SourceGraphic" in2="n" scale="2.1"/></filter></defs><rect width="100" height="100" rx="50" fill="#FBEFD6"/><g filter="url(#rough)"><circle cx="50" cy="18" r="6" fill="#2B2320"/><path d="M40 78 q10 4 20 0 l0 12 -20 0 z" fill="#C17C4E"/><ellipse cx="28" cy="56" rx="4" ry="5" fill="#C17C4E" stroke="#2a2320" stroke-width="2"/><ellipse cx="72" cy="56" rx="4" ry="5" fill="#C17C4E" stroke="#2a2320" stroke-width="2"/><path d="M27 50 q0 -22 23 -22 q23 0 23 22 q0 24 -23 30 q-23 -6 -23 -30 z" fill="#C17C4E" stroke="#2a2320" stroke-width="2.2"/><path d="M28 46 q1 -24 22 -24 q21 0 22 24 q-8 -11 -22 -11 q-14 0 -22 11 z" fill="#2B2320" opacity=".95"/><circle cx="40" cy="52" r="2.4" fill="#2a2320"/><circle cx="60" cy="52" r="2.4" fill="#2a2320"/><path d="M35 45 q5 -3 10 0" fill="none" stroke="#2a2320" stroke-width="2.2" stroke-linecap="round" stroke-linejoin="round" /><path d="M55 45 q5 -3 10 0" fill="none" stroke="#2a2320" stroke-width="2.2" stroke-linecap="round" stroke-linejoin="round" /><circle cx="40" cy="52" r="7" fill="none" stroke="#2a2320" stroke-width="2.2" stroke-linecap="round" stroke-linejoin="round" /><circle cx="60" cy="52" r="7" fill="none" stroke="#2a2320" stroke-width="2.2" stroke-linecap="round" stroke-linejoin="round" /><path d="M47 52 h6" fill="none" stroke="#2a2320" stroke-width="2.2" stroke-linecap="round" stroke-linejoin="round" /><path d="M50 54 q -3 6 1 8" fill="none" stroke="#2a2320" stroke-width="2.2" stroke-linecap="round" stroke-linejoin="round" /><path d="M43 68 q7 6 14 0" fill="none" stroke="#2a2320" stroke-width="2.2" stroke-linecap="round" stroke-linejoin="round" /></g></svg>