<svg xmlns="http://www.w3.org/2000/svg" viewBox="0 0 100 100"><defs><filter id="rough"><feTurbulence type="fractalNoise" baseFrequency="0.013" numOctaves="2" seed="56" result="n"/><feDisplacementMap in="SourceGraphic" in2="n" scale="2.1"/></filter></defs><rect width="100" height="100" rx="50" fill="#DCE9F5"/><g filter="url(#rough)"><path d="M40 78 q10 4 20 0 l0 12 -20 0 z" fill="#EDB98A"/><ellipse cx="28" cy="56" rx="4" ry="5" fill="#EDB98A" stroke="#2a2320" stroke-width="2"/><ellipse cx="72" cy="56" rx="4" ry="5" fill="#EDB98A" stroke="#2a2320" stroke-width="2"/><path d="M27 50 q0 -22 23 -22 q23 0 23 22 q0 24 -23 30 q-23 -6 -23 -30 z" fill="#EDB98A" stroke="#2a2320" stroke-width="2.2"/><path d="M26 48 q0 -28 24 -28 q24 0 24 26 q-6 -8 -12 -8 q-2 8 -8 8 q4 -10 -2 -14 q-6 8 -16 8 q-6 0 -10 8 z" fill="#8A8A8A"/><circle cx="40" cy="52" r="2.4" fill="#2a2320"/><circle cx="60" cy="52" r="2.4" fill="#2a2320"/><path d="M35 45 q5 -3 10 0" fill="none" stroke="#2a2320" stroke-width="2.2" stroke-linecap="round" stroke-linejoin="round" /><path d="M55 45 q5 -3 10 0" fill="none" stroke="#2a2320" stroke-width="2.2" stroke-linecap="round" stroke-linejoin="round" /><path d="M50 54 q -3 6 1 8" fill="none" stroke="#2a2320" stroke-width="2.2" stroke-linecap="round" stroke-linejoin="round" /><path d="M44 69 h12" fill="none" stroke="#2a2320" stroke-width="2.2" stroke-linecap="round" stroke-linejoin="round" /></g></svg>