<svg xmlns="http://www.w3.org/2000/svg" viewBox="0 0 100 100"><defs><filter id="rough"><feTurbulence type="fractalNoise" baseFrequency="0.013" numOctaves="2" seed="70" result="n"/><feDisplacementMap in="SourceGraphic" in2="n" scale="2.1"/></filter></defs><rect width="100" height="100" rx="50" fill="#E3EFD8"/><g filter="url(#rough)"><path d="M24 42 q2 -28 26 -28 q24 0 26 28 q4 16 -2 30 q-3 -6 -7 -6 q3 -10 0 -18 q-17 6 -34 0 q-3 8 0 18 q-4 0 -7 6 q-6 -14 -2 -30 z" fill="#6B4A2F"/><circle cx="22" cy="58" r="6" fill="#6B4A2F"/><circle cx="78" cy="58" r="6" fill="#6B4A2F"/><circle cx="24" cy="68" r="5" fill="#6B4A2F"/><circle cx="76" cy="68" r="5" fill="#6B4A2F"/><path d="M40 78 q10 4 20 0 l0 12 -20 0 z" fill="#7A4424"/><ellipse cx="28" cy="56" rx="4" ry="5" fill="#7A4424" stroke="#2a2320" stroke-width="2"/><ellipse cx="72" cy="56" rx="4" ry="5" fill="#7A4424" stroke="#2a2320" stroke-width="2"/><path d="M27 50 q0 -22 23 -22 q23 0 23 22 q0 24 -23 30 q-23 -6 -23 -30 z" fill="#7A4424" stroke="#2a2320" stroke-width="2.2"/><path d="M26 46 q2 -26 24 -26 q22 0 24 26 q-7 -12 -24 -12 q-17 0 -24 12 z" fill="#6B4A2F"/><circle cx="40" cy="52" r="2.4" fill="#2a2320"/><circle cx="60" cy="52" r="2.4" fill="#2a2320"/><path d="M35 45 q5 -3 10 0" fill="none" stroke="#2a2320" stroke-width="2.2" stroke-linecap="round" stroke-linejoin="round" /><path d="M55 45 q5 -3 10 0" fill="none" stroke="#2a2320" stroke-width="2.2" stroke-linecap="round" stroke-linejoin="round" /><path d="M50 54 q -3 6 1 8" fill="none" stroke="#2a2320" stroke-width="2.2" stroke-linecap="round" stroke-linejoin="round" /><path d="M44 68 q6 3 12 0" fill="none" stroke="#2a2320" stroke-width="2.2" stroke-linecap="round" stroke-linejoin="round" /></g></svg>